<mxfile host="app.diagrams.net" modified="2022-05-28T09:53:54.366Z" agent="5.0 (Windows NT 10.0; Win64; x64) AppleWebKit/537.36 (KHTML, like Gecko) Chrome/102.0.5005.61 Safari/537.36" etag="zfytZLgx7UUykenlIZ9q" version="17.4.3" type="github">
  <diagram id="3CJurVh0qIclkFhJRMKo" name="Page-1">
    <mxGraphModel dx="1361" dy="703" grid="1" gridSize="10" guides="1" tooltips="1" connect="1" arrows="1" fold="1" page="1" pageScale="1" pageWidth="827" pageHeight="1169" math="0" shadow="0">
      <root>
        <mxCell id="0" />
        <mxCell id="1" parent="0" />
        <mxCell id="BELl_IB8kdiGP95Ta7bd-4" value="" style="edgeStyle=orthogonalEdgeStyle;rounded=0;orthogonalLoop=1;jettySize=auto;html=1;entryX=0.5;entryY=1;entryDx=0;entryDy=0;" edge="1" parent="1" source="BELl_IB8kdiGP95Ta7bd-3" target="BELl_IB8kdiGP95Ta7bd-1">
          <mxGeometry relative="1" as="geometry" />
        </mxCell>
        <mxCell id="BELl_IB8kdiGP95Ta7bd-7" style="edgeStyle=orthogonalEdgeStyle;rounded=0;orthogonalLoop=1;jettySize=auto;html=1;exitX=1;exitY=0.5;exitDx=0;exitDy=0;" edge="1" parent="1" source="BELl_IB8kdiGP95Ta7bd-1">
          <mxGeometry relative="1" as="geometry">
            <mxPoint x="600.1428571428571" y="600" as="targetPoint" />
            <Array as="points">
              <mxPoint x="620" y="440" />
              <mxPoint x="620" y="600" />
            </Array>
          </mxGeometry>
        </mxCell>
        <mxCell id="BELl_IB8kdiGP95Ta7bd-8" value="金额" style="edgeLabel;html=1;align=center;verticalAlign=middle;resizable=0;points=[];" vertex="1" connectable="0" parent="BELl_IB8kdiGP95Ta7bd-7">
          <mxGeometry x="-0.0981" y="-2" relative="1" as="geometry">
            <mxPoint as="offset" />
          </mxGeometry>
        </mxCell>
        <mxCell id="BELl_IB8kdiGP95Ta7bd-10" style="edgeStyle=orthogonalEdgeStyle;rounded=0;orthogonalLoop=1;jettySize=auto;html=1;exitX=0.5;exitY=0;exitDx=0;exitDy=0;entryX=0.463;entryY=1.013;entryDx=0;entryDy=0;entryPerimeter=0;" edge="1" parent="1" source="BELl_IB8kdiGP95Ta7bd-1" target="BELl_IB8kdiGP95Ta7bd-9">
          <mxGeometry relative="1" as="geometry" />
        </mxCell>
        <mxCell id="BELl_IB8kdiGP95Ta7bd-13" style="edgeStyle=orthogonalEdgeStyle;rounded=0;orthogonalLoop=1;jettySize=auto;html=1;exitX=0.5;exitY=0;exitDx=0;exitDy=0;entryX=0.5;entryY=1;entryDx=0;entryDy=0;" edge="1" parent="1" source="BELl_IB8kdiGP95Ta7bd-1" target="BELl_IB8kdiGP95Ta7bd-11">
          <mxGeometry relative="1" as="geometry" />
        </mxCell>
        <mxCell id="BELl_IB8kdiGP95Ta7bd-14" style="edgeStyle=orthogonalEdgeStyle;rounded=0;orthogonalLoop=1;jettySize=auto;html=1;exitX=0.5;exitY=0;exitDx=0;exitDy=0;entryX=0.5;entryY=1;entryDx=0;entryDy=0;" edge="1" parent="1" source="BELl_IB8kdiGP95Ta7bd-1" target="BELl_IB8kdiGP95Ta7bd-12">
          <mxGeometry relative="1" as="geometry" />
        </mxCell>
        <mxCell id="BELl_IB8kdiGP95Ta7bd-17" value="分类" style="edgeLabel;html=1;align=center;verticalAlign=middle;resizable=0;points=[];" vertex="1" connectable="0" parent="BELl_IB8kdiGP95Ta7bd-14">
          <mxGeometry x="-0.8324" y="1" relative="1" as="geometry">
            <mxPoint as="offset" />
          </mxGeometry>
        </mxCell>
        <mxCell id="BELl_IB8kdiGP95Ta7bd-1" value="进项税&lt;br&gt;" style="ellipse;whiteSpace=wrap;html=1;" vertex="1" parent="1">
          <mxGeometry x="480" y="410" width="120" height="70" as="geometry" />
        </mxCell>
        <mxCell id="BELl_IB8kdiGP95Ta7bd-2" value="" style="ellipse;whiteSpace=wrap;html=1;" vertex="1" parent="1">
          <mxGeometry x="1130" y="410" width="120" height="80" as="geometry" />
        </mxCell>
        <mxCell id="BELl_IB8kdiGP95Ta7bd-3" value="台账" style="ellipse;whiteSpace=wrap;html=1;" vertex="1" parent="1">
          <mxGeometry x="480" y="550" width="120" height="80" as="geometry" />
        </mxCell>
        <mxCell id="BELl_IB8kdiGP95Ta7bd-6" style="edgeStyle=orthogonalEdgeStyle;rounded=0;orthogonalLoop=1;jettySize=auto;html=1;exitX=0.5;exitY=0;exitDx=0;exitDy=0;entryX=0.5;entryY=1;entryDx=0;entryDy=0;" edge="1" parent="1" source="BELl_IB8kdiGP95Ta7bd-5" target="BELl_IB8kdiGP95Ta7bd-3">
          <mxGeometry relative="1" as="geometry">
            <Array as="points">
              <mxPoint x="540" y="660" />
              <mxPoint x="540" y="660" />
            </Array>
          </mxGeometry>
        </mxCell>
        <mxCell id="BELl_IB8kdiGP95Ta7bd-5" value="票据中心" style="ellipse;whiteSpace=wrap;html=1;" vertex="1" parent="1">
          <mxGeometry x="480" y="690" width="120" height="80" as="geometry" />
        </mxCell>
        <mxCell id="BELl_IB8kdiGP95Ta7bd-9" value="转出" style="ellipse;whiteSpace=wrap;html=1;" vertex="1" parent="1">
          <mxGeometry x="294" y="280" width="120" height="80" as="geometry" />
        </mxCell>
        <mxCell id="BELl_IB8kdiGP95Ta7bd-11" value="计算抵扣&amp;nbsp;" style="ellipse;whiteSpace=wrap;html=1;" vertex="1" parent="1">
          <mxGeometry x="480" y="280" width="120" height="80" as="geometry" />
        </mxCell>
        <mxCell id="BELl_IB8kdiGP95Ta7bd-12" value="认证" style="ellipse;whiteSpace=wrap;html=1;" vertex="1" parent="1">
          <mxGeometry x="660" y="280" width="120" height="80" as="geometry" />
        </mxCell>
        <mxCell id="BELl_IB8kdiGP95Ta7bd-15" style="edgeStyle=orthogonalEdgeStyle;rounded=0;orthogonalLoop=1;jettySize=auto;html=1;exitX=0;exitY=0.5;exitDx=0;exitDy=0;" edge="1" parent="1" source="BELl_IB8kdiGP95Ta7bd-1" target="BELl_IB8kdiGP95Ta7bd-1">
          <mxGeometry relative="1" as="geometry" />
        </mxCell>
        <mxCell id="BELl_IB8kdiGP95Ta7bd-16" value="票种等规则" style="edgeLabel;html=1;align=center;verticalAlign=middle;resizable=0;points=[];" vertex="1" connectable="0" parent="BELl_IB8kdiGP95Ta7bd-15">
          <mxGeometry x="-0.5562" y="-1" relative="1" as="geometry">
            <mxPoint as="offset" />
          </mxGeometry>
        </mxCell>
        <mxCell id="BELl_IB8kdiGP95Ta7bd-18" value="1：N" style="text;html=1;align=center;verticalAlign=middle;resizable=0;points=[];autosize=1;strokeColor=none;fillColor=none;" vertex="1" parent="1">
          <mxGeometry x="520" y="650" width="40" height="20" as="geometry" />
        </mxCell>
      </root>
    </mxGraphModel>
  </diagram>
</mxfile>
